<svg width="54" height="34" viewBox="0 0 54 34" fill="none" xmlns="http://www.w3.org/2000/svg">
<rect width="54" height="34" fill="white"/>
<path fill-rule="evenodd" clip-rule="evenodd" d="M46.9998 17.0002C46.9998 23.6279 41.6432 29 35.0338 29C28.4258 29 23.0684 23.6279 23.0684 17.0002C23.0684 10.3723 28.4258 5 35.0338 5C41.6432 5 46.9998 10.3723 46.9998 17.0002Z" fill="#CC0000"/>
<path fill-rule="evenodd" clip-rule="evenodd" d="M25.7917 24.6207C25.4613 24.2188 25.157 23.7942 24.8804 23.3497H29.1212C29.3757 22.9424 29.6055 22.5179 29.8107 22.0789H24.1912C23.9996 21.6678 23.8294 21.2437 23.6845 20.8085H30.3164C30.7158 19.6119 30.9316 18.3318 30.9316 17.0002C30.9316 16.1282 30.839 15.2779 30.6631 14.459H23.3388C23.4315 14.0261 23.5484 13.6024 23.6861 13.1882H30.3157C30.1702 12.753 30.001 12.3292 29.8096 11.918H24.1923C24.3975 11.479 24.6279 11.0554 24.8817 10.6471H29.1199C28.8434 10.2037 28.5383 9.77986 28.2085 9.37745H25.7932C26.1649 8.92516 26.5686 8.50055 27.001 8.10743C24.8771 6.17633 22.0583 5 18.9664 5C12.3574 5 7 10.3723 7 17.0002C7 23.6279 12.3574 29 18.9664 29C22.0585 29 24.8775 27.8237 27.001 25.8933C27.4339 25.4994 27.8382 25.0739 28.2098 24.6207H25.7917Z" fill="#0066CC"/>
<path fill-rule="evenodd" clip-rule="evenodd" d="M26.8308 20.2424C26.3194 20.3782 25.8248 20.4446 25.3021 20.4435C23.6343 20.4419 22.7656 19.6802 22.7656 18.2234C22.7656 16.5213 23.8714 15.2695 25.3725 15.2695C26.6002 15.2695 27.3839 15.9714 27.3839 17.0711C27.3839 17.436 27.331 17.7915 27.2011 18.2941H24.2351C24.1296 19.0056 24.6476 19.318 25.5294 19.318C26.0576 19.318 26.5352 19.2228 27.0643 19.0094L26.8308 20.2424ZM26.0315 17.2904C26.0315 17.1831 26.1964 16.4192 25.338 16.4027C24.8641 16.4027 24.5242 16.7187 24.3867 17.2904H26.0315Z" fill="#000066"/>
<path fill-rule="evenodd" clip-rule="evenodd" d="M27.8355 16.9578C27.8355 17.5864 28.1884 18.0209 28.9908 18.3442C29.6042 18.5961 29.7006 18.6691 29.7006 18.8942C29.7006 19.2061 29.4298 19.3491 28.828 19.3453C28.3762 19.3421 27.9637 19.2869 27.4771 19.1517L27.2617 20.2984C27.6944 20.3991 28.3009 20.4321 28.8386 20.4447C30.4403 20.4447 31.1797 19.9188 31.1797 18.7821C31.1797 18.0986 30.8713 17.6968 30.1106 17.3972C29.4748 17.1423 29.4003 17.0875 29.4003 16.8567C29.4003 16.5859 29.6522 16.449 30.1433 16.449C30.4412 16.449 30.8488 16.4763 31.2357 16.5233L31.4526 15.3703C31.0585 15.3155 30.4607 15.2715 30.1144 15.2715C28.4176 15.2715 27.8304 16.0374 27.8355 16.9578Z" fill="#000066"/>
<path fill-rule="evenodd" clip-rule="evenodd" d="M21.9537 20.3613H20.7094L20.7391 19.8387C20.3598 20.251 19.8542 20.4431 19.1685 20.4431C18.3568 20.4431 17.8008 19.8865 17.8008 19.086C17.8008 17.8693 18.7674 17.1674 20.4294 17.1674C20.6001 17.1674 20.8174 17.1803 21.0406 17.2056C21.0867 17.0427 21.0992 16.9725 21.0992 16.8841C21.0992 16.5511 20.8377 16.4284 20.1383 16.4284C19.4488 16.4311 18.9835 16.5337 18.5518 16.6499L18.7643 15.5337C19.511 15.3433 19.9997 15.2695 20.5529 15.2695C21.8398 15.2695 22.5195 15.7759 22.5195 16.7267C22.5303 16.9806 22.4424 17.49 22.3979 17.713C22.3476 18.0371 21.9909 19.9176 21.9537 20.3613ZM20.8601 18.1416C20.7025 18.126 20.6339 18.1213 20.5259 18.1213C19.6773 18.1213 19.2471 18.3746 19.2471 18.8747C19.2471 19.1888 19.457 19.385 19.7844 19.385C20.3941 19.385 20.8344 18.8736 20.8601 18.1416Z" fill="#000066"/>
<path fill-rule="evenodd" clip-rule="evenodd" d="M33.8017 20.2821C33.3936 20.3942 33.0753 20.4431 32.7313 20.4431C31.9692 20.4431 31.5529 20.0525 31.5529 19.3569C31.5289 19.1657 31.7152 18.2827 31.7575 18.0368C31.7995 17.7901 32.4597 14.1934 32.4597 14.1934H33.9406L33.7166 15.3835H34.4761L34.2698 16.5978H33.5069C33.5069 16.5978 33.0884 18.706 33.0884 18.8672C33.0884 19.1227 33.2427 19.2338 33.5973 19.2338C33.7667 19.2338 33.8978 19.2179 33.999 19.1875L33.8017 20.2821Z" fill="#000066"/>
<path fill-rule="evenodd" clip-rule="evenodd" d="M40.4196 15.2699C39.3342 15.2699 38.4862 15.7184 37.9936 16.4663L38.4212 15.3566C37.6333 15.0666 37.1253 15.4806 36.6663 16.0688C36.6663 16.0688 36.5893 16.1665 36.5126 16.2558V15.3837H35.1221C34.9338 16.923 34.6007 18.4841 34.3403 20.0268L34.2773 20.3623H35.7731C35.9151 19.5795 36.0316 18.9442 36.1477 18.4374C36.4655 17.0474 37.0003 16.6226 37.8031 16.8107C37.6178 17.2099 37.5162 17.6726 37.5162 18.1845C37.5162 19.4272 38.1887 20.4438 39.8596 20.4438C41.5454 20.4438 42.7662 19.5408 42.7662 17.4815C42.7662 16.2395 41.9526 15.2699 40.4196 15.2699ZM39.9843 19.2361C39.4561 19.2442 39.1357 18.7997 39.1357 18.1344C39.1357 17.3463 39.6031 16.4556 40.3541 16.4556C40.96 16.4556 41.1675 16.9374 41.1675 17.4508C41.1675 18.5719 40.7092 19.2361 39.9843 19.2361Z" fill="#000066"/>
<path fill-rule="evenodd" clip-rule="evenodd" d="M17.1034 20.3633H15.6137L16.4989 15.686L14.4608 20.3633H13.1029L12.8548 15.7135L11.9667 20.3633H10.6152L11.7662 14.2793H14.0941L14.2879 17.671L15.7627 14.2793H18.2774L17.1034 20.3633Z" fill="#000066"/>
<path fill-rule="evenodd" clip-rule="evenodd" d="M27.2054 19.8673C26.6944 20.0032 26.1996 20.0696 25.6771 20.0685C24.0093 20.0669 23.1406 19.305 23.1406 17.8484C23.1406 16.1463 24.2462 14.8945 25.7471 14.8945C26.975 14.8945 27.7589 15.5964 27.7589 16.6959C27.7589 17.0608 27.7058 17.4156 27.5761 17.9191H24.6103C24.5046 18.6299 25.0222 18.9428 25.904 18.9428C26.4323 18.9428 26.9102 18.8476 27.4391 18.6338L27.2054 19.8673ZM26.4084 16.9153C26.4084 16.8077 26.5734 16.0441 25.7153 16.0274C25.2414 16.0274 24.9015 16.3433 24.7637 16.9153H26.4084Z" fill="white"/>
<path fill-rule="evenodd" clip-rule="evenodd" d="M28.2109 16.5826C28.2109 17.2114 28.5636 17.6455 29.3658 17.9692C29.9795 18.2212 30.0758 18.2941 30.0758 18.5186C30.0758 18.8311 29.8048 18.9741 29.2036 18.9705C28.7512 18.9671 28.3387 18.9119 27.8525 18.7767L27.6367 19.9231C28.0696 20.0241 28.6765 20.0571 29.2136 20.0698C30.8153 20.0698 31.5551 19.5438 31.5551 18.4067C31.5551 17.7236 31.2465 17.3214 30.4858 17.0222C29.85 16.7675 29.7753 16.7119 29.7753 16.4819C29.7753 16.2111 30.0276 16.0736 30.5185 16.0736C30.8164 16.0736 31.2238 16.1015 31.6109 16.1485L31.8278 14.9955C31.4337 14.9399 30.8359 14.8965 30.49 14.8965C28.7928 14.8965 28.2056 15.6621 28.2109 16.5826Z" fill="white"/>
<path fill-rule="evenodd" clip-rule="evenodd" d="M22.3251 19.9862H21.0805L21.1106 19.4635C20.731 19.8754 20.2259 20.0673 19.54 20.0673C18.7285 20.0673 18.1719 19.5109 18.1719 18.7105C18.1719 17.4941 19.1387 16.7923 20.8006 16.7923C20.9714 16.7923 21.1885 16.8053 21.4121 16.8296C21.4582 16.6671 21.4705 16.5975 21.4705 16.5089C21.4705 16.1752 21.2091 16.053 20.51 16.053C19.8202 16.0559 19.355 16.1585 18.9234 16.2749L19.1354 15.1585C19.8823 14.9681 20.3708 14.8945 20.9243 14.8945C22.2113 14.8945 22.8908 15.4003 22.8908 16.3515C22.902 16.6056 22.8134 17.1141 22.7696 17.3378C22.7187 17.6619 22.3622 19.5424 22.3251 19.9862ZM21.2351 17.7663C21.0777 17.75 21.0089 17.7459 20.9007 17.7459C20.0525 17.7459 19.6221 17.9988 19.6221 18.4985C19.6221 18.8132 19.8324 19.0098 20.1592 19.0098C20.7693 19.0098 21.2095 18.4978 21.2351 17.7663Z" fill="white"/>
<path fill-rule="evenodd" clip-rule="evenodd" d="M34.1727 19.9071C33.7644 20.0194 33.4463 20.0683 33.1021 20.0683C32.3399 20.0683 31.924 19.6775 31.924 18.9819C31.8998 18.7907 32.0861 17.9077 32.1283 17.6618C32.1706 17.4151 32.8309 13.8184 32.8309 13.8184H34.3115L34.0878 15.0082H34.8473L34.6407 16.2228H33.878C33.878 16.2228 33.4591 18.331 33.4591 18.4915C33.4591 18.7478 33.6136 18.8582 33.9682 18.8582C34.1377 18.8582 34.2686 18.843 34.3703 18.8123L34.1727 19.9071Z" fill="white"/>
<path fill-rule="evenodd" clip-rule="evenodd" d="M41.537 17.0744C41.537 18.1965 41.0782 18.8606 40.3533 18.8606C39.8251 18.8682 39.5049 18.4242 39.5049 17.759C39.5049 16.9708 39.9722 16.0799 40.723 16.0799C41.3291 16.0799 41.537 16.5618 41.537 17.0744ZM43.1367 17.1059C43.1367 15.8642 42.3229 14.8945 40.7903 14.8945C39.0271 14.8945 37.8867 16.073 37.8867 17.8091C37.8867 19.0516 38.5592 20.0685 40.2303 20.0685C41.9161 20.0685 43.1367 19.1654 43.1367 17.1059Z" fill="white"/>
<path fill-rule="evenodd" clip-rule="evenodd" d="M35.4929 15.0077C35.3047 16.5474 34.9715 18.1083 34.7112 19.6509L34.6484 19.9869H36.144C36.683 17.0075 36.864 16.1588 37.9936 16.4575L38.5369 15.0479C37.7489 14.758 37.2418 15.1722 36.7828 15.7608C36.8243 15.4959 36.9022 15.24 36.8835 15.0077H35.4929Z" fill="white"/>
<path fill-rule="evenodd" clip-rule="evenodd" d="M17.4764 19.9885H15.9871L16.8722 15.3112L14.8338 19.9885H13.476L13.2277 15.3385L12.3395 19.9885H10.9883L12.1391 13.9043H14.4671L14.5901 17.6709L16.2288 13.9043H18.6505L17.4764 19.9885Z" fill="white"/>
</svg>
