<svg width="54" height="34" viewBox="0 0 54 34" fill="none" xmlns="http://www.w3.org/2000/svg">
<rect width="54" height="34" fill="white"/>
<path fill-rule="evenodd" clip-rule="evenodd" d="M20 24L22.3091 10H26L23.6912 24H20Z" fill="#003894"/>
<path fill-rule="evenodd" clip-rule="evenodd" d="M36 10.569C35.3411 10.2968 34.3047 10 33.0137 10C29.7188 10 27.3995 11.8405 27.3802 14.476C27.3592 16.4255 29.0353 17.5128 30.2988 18.1607C31.5975 18.8249 32.0338 19.2499 32.0286 19.8438C32.0197 20.7522 30.9921 21.1684 30.0339 21.1684C28.6996 21.1684 27.9907 20.9635 26.8947 20.4571L26.466 20.2412L26 23.2771C26.7771 23.6549 28.2178 23.9828 29.7129 24C33.2146 24 35.4899 22.1817 35.5166 19.3673C35.5286 17.8214 34.6406 16.6497 32.7173 15.6822C31.5527 15.0533 30.8379 14.6367 30.8461 14.0001C30.8468 13.4365 31.4499 12.833 32.7552 12.833C33.8453 12.8146 34.6345 13.0786 35.2494 13.3542L35.5486 13.5092L36 10.569Z" fill="#003894"/>
<path fill-rule="evenodd" clip-rule="evenodd" d="M40.8336 18.7731C41.1243 17.9906 42.231 14.9679 42.231 14.9679C42.2105 15.0038 42.5201 14.1794 42.6972 13.6691L42.934 14.8432C42.934 14.8432 43.6071 18.0925 43.7457 18.7731C43.1996 18.7731 41.5185 18.7731 40.8336 18.7731ZM45.1612 10H42.4503C41.6094 10 40.98 10.2409 40.6117 11.1285L35.4023 23.6044H39.0867C39.0867 23.6044 39.6878 21.9261 39.8242 21.5578C40.2261 21.5578 43.8061 21.5648 44.3171 21.5648C44.4223 22.0399 44.7443 23.6044 44.7443 23.6044H48.0001L45.1612 10Z" fill="#003894"/>
<path fill-rule="evenodd" clip-rule="evenodd" d="M17.0958 10L13.4898 19.561L13.1036 17.6175C12.4316 15.3782 10.3398 12.9511 8 11.735L11.299 24L15.1981 23.9977L21 10H17.0958Z" fill="#003894"/>
<path fill-rule="evenodd" clip-rule="evenodd" d="M10.3535 10H5.04369L5 10.3048C9.13164 11.5233 11.8653 14.4645 13 18L11.8461 11.2411C11.6471 10.3089 11.0685 10.0326 10.3535 10Z" fill="#EC982D"/>
</svg>
