<svg width="40" height="24" viewBox="0 0 40 24" fill="none" xmlns="http://www.w3.org/2000/svg">
<path fill-rule="evenodd" clip-rule="evenodd" d="M23.9329 12.0002C23.9329 18.6279 18.5757 24 11.9667 24C5.35762 24 0 18.6279 0 12.0002C0 5.37267 5.35762 0 11.9667 0C18.5757 0 23.9329 5.37267 23.9329 12.0002Z" fill="#CC0000"/>
<path fill-rule="evenodd" clip-rule="evenodd" d="M28.0338 0C24.9411 0 22.1242 1.17633 20.0001 3.1061C19.568 3.49942 19.1646 3.92421 18.7923 4.3765H21.21C21.5402 4.77967 21.8445 5.20352 22.1223 5.64746H17.8798C17.626 6.05538 17.3953 6.47922 17.1903 6.91842H22.8114C23.0035 7.32975 23.1726 7.75341 23.3182 8.18882H16.6835C16.5455 8.60261 16.429 9.02664 16.3359 9.45902H23.6654C23.8409 10.2783 23.9343 11.1282 23.9343 12.0002C23.9343 13.3324 23.7178 14.6147 23.3182 15.8123H16.6835C16.8291 16.2474 16.9982 16.6716 17.1899 17.0835H22.8114C22.606 17.5215 22.3764 17.9458 22.1211 18.3542H17.8798C18.1565 18.7969 18.4613 19.2213 18.7923 19.6239H21.2092C20.8377 20.0766 20.4339 20.5013 20.0005 20.8947C22.1243 22.8244 24.9411 24 28.0338 24C34.6425 24 40 18.6279 40 12.0002C40 5.37324 34.6425 0 28.0338 0Z" fill="#FF9900"/>
<path fill-rule="evenodd" clip-rule="evenodd" d="M9.17227 13.3141C9.03592 13.2985 8.97579 13.2936 8.88218 13.2936C8.14579 13.2936 7.77344 13.547 7.77344 14.0474C7.77344 14.3556 7.95517 14.5515 8.23883 14.5515C8.76815 14.5515 9.14958 14.0463 9.17227 13.3141ZM10.1159 15.5197C9.94264 15.5197 9.03908 15.5197 9.03908 15.5197L9.06385 15.0067C8.73556 15.4118 8.2974 15.6052 7.70228 15.6052C6.99842 15.6052 6.51562 15.0541 6.51562 14.2533C6.51562 13.0478 7.35508 12.3448 8.79627 12.3448C8.94396 12.3448 9.13269 12.3584 9.32596 12.3829C9.36605 12.2194 9.37664 12.15 9.37664 12.0618C9.37664 11.7341 9.15047 11.6112 8.54362 11.6112C7.90803 11.6048 7.38382 11.7635 7.16843 11.8344C7.18204 11.7521 7.34865 10.7211 7.34865 10.7211C7.99577 10.5303 8.42278 10.459 8.9033 10.459C10.019 10.459 10.61 10.9611 10.6087 11.9105C10.6109 12.1652 10.5688 12.4783 10.5035 12.8913C10.3908 13.6081 10.1488 15.1455 10.1159 15.5197Z" fill="#000066"/>
<path fill-rule="evenodd" clip-rule="evenodd" d="M5.97322 15.5204H4.67386L5.41856 10.8417L3.75649 15.5204H2.87128L2.76179 10.8678L1.97964 15.5204H0.763672L1.77937 9.43359H3.64757L3.76046 12.8407L4.90022 9.43359H6.97795L5.97322 15.5204Z" fill="#000066"/>
<path fill-rule="evenodd" clip-rule="evenodd" d="M29.6383 13.3141C29.502 13.2985 29.4426 13.2936 29.3492 13.2936C28.6122 13.2936 28.2402 13.547 28.2402 14.0474C28.2402 14.3556 28.4212 14.5515 28.7056 14.5515C29.2346 14.5515 29.6162 14.0463 29.6383 13.3141ZM30.5825 15.5197C30.4089 15.5197 29.5061 15.5197 29.5061 15.5197L29.5305 15.0067C29.2022 15.4118 28.7642 15.6052 28.1695 15.6052C27.4646 15.6052 26.9824 15.0541 26.9824 14.2533C26.9824 13.0478 27.8223 12.3448 29.2631 12.3448C29.4106 12.3448 29.5989 12.3584 29.7924 12.3829C29.8327 12.2194 29.8431 12.15 29.8431 12.0618C29.8431 11.7341 29.6169 11.6112 29.01 11.6112C28.3744 11.6048 27.8504 11.7635 27.6343 11.8344C27.6486 11.7521 27.8156 10.7211 27.8156 10.7211C28.4624 10.5303 28.8898 10.459 29.3695 10.459C30.486 10.459 31.0762 10.9611 31.0751 11.9105C31.0774 12.1652 31.0356 12.4783 30.97 12.8913C30.8576 13.6081 30.615 15.1455 30.5825 15.5197Z" fill="#000066"/>
<path fill-rule="evenodd" clip-rule="evenodd" d="M15.8921 15.4444C15.5364 15.5567 15.2594 15.6053 14.9587 15.6053C14.2947 15.6053 13.9322 15.2226 13.9322 14.5177C13.9229 14.2988 14.0277 13.7233 14.1102 13.1984C14.1854 12.7358 14.6737 9.82031 14.6737 9.82031H15.9647L15.814 10.5696H16.5941L16.418 11.7594H15.6353C15.4854 12.7006 15.2715 13.8733 15.269 14.0288C15.269 14.284 15.4048 14.3956 15.714 14.3956C15.8621 14.3956 15.9767 14.3804 16.0642 14.3489L15.8921 15.4444Z" fill="#000066"/>
<path fill-rule="evenodd" clip-rule="evenodd" d="M19.8484 15.4044C19.4048 15.5404 18.9772 15.6067 18.5235 15.6052C17.0778 15.6033 16.3242 14.8467 16.3242 13.3969C16.3242 11.7049 17.2828 10.459 18.5844 10.459C19.6489 10.459 20.3291 11.1565 20.3291 12.2499C20.3291 12.6135 20.2826 12.9677 20.1697 13.4676H17.5982C17.5114 14.1858 17.9695 14.4848 18.7212 14.4848C19.1828 14.4848 19.5999 14.3893 20.0634 14.1736L19.8484 15.4044ZM19.1231 12.4701C19.1305 12.3667 19.2599 11.5863 18.5218 11.5863C18.111 11.5863 17.8166 11.9008 17.6973 12.4701H19.1231Z" fill="#000066"/>
<path fill-rule="evenodd" clip-rule="evenodd" d="M10.8981 12.1346C10.8981 12.7603 11.2007 13.1921 11.8872 13.5165C12.4131 13.7648 12.4949 13.8382 12.4949 14.0629C12.4949 14.3711 12.2627 14.511 11.7489 14.511C11.3611 14.511 11.0006 14.4499 10.5848 14.3151C10.5848 14.3151 10.4144 15.4067 10.4062 15.4588C10.7014 15.5229 10.9647 15.5827 11.7582 15.6052C13.1288 15.6052 13.762 15.0818 13.762 13.9506C13.762 13.2706 13.4972 12.8714 12.8463 12.571C12.3019 12.3205 12.2389 12.2644 12.2389 12.0334C12.2389 11.7658 12.455 11.6291 12.8747 11.6291C13.1298 11.6291 13.4779 11.6564 13.8083 11.7032L13.9931 10.5551C13.6568 10.5015 13.1466 10.459 12.8497 10.459C11.3966 10.459 10.8934 11.22 10.8981 12.1346Z" fill="#000066"/>
<path fill-rule="evenodd" clip-rule="evenodd" d="M26.1683 10.5897C26.5292 10.5897 26.8662 10.6837 27.3293 10.9183L27.542 9.59728C27.351 9.52218 26.6814 9.08203 26.1141 9.08203C25.2449 9.08203 24.5093 9.51517 23.9929 10.2284C23.2387 9.97808 22.9284 10.484 22.5486 10.9885L22.2111 11.0674C22.2366 10.9014 22.2599 10.7366 22.2525 10.5696H21.0588C20.8962 12.102 20.6074 13.6537 20.3815 15.1867L20.3223 15.5197H21.622C21.8389 14.1061 21.9575 13.2014 22.0297 12.5885L22.5191 12.3165C22.5927 12.0433 22.8209 11.9515 23.2801 11.9627C23.2202 12.2854 23.1876 12.6254 23.1876 12.9772C23.1876 14.5969 24.0602 15.6052 25.4581 15.6052C25.8183 15.6052 26.1277 15.5578 26.6067 15.427L26.8344 14.04C26.4036 14.2522 26.0509 14.3521 25.7311 14.3521C24.9758 14.3521 24.5188 13.7929 24.5188 12.8691C24.5188 11.5286 25.198 10.5897 26.1683 10.5897Z" fill="#000066"/>
<path fill-rule="evenodd" clip-rule="evenodd" d="M37.1667 9.43359L36.878 11.1921C36.5234 10.7235 36.1418 10.3841 35.638 10.3841C34.9825 10.3841 34.3859 10.8824 33.9952 11.6163C33.4511 11.5031 32.8889 11.3106 32.8889 11.3106L32.8885 11.3154C32.9319 10.9052 32.9502 10.6556 32.9458 10.5703H31.7524C31.5903 12.1028 31.3012 13.6544 31.0754 15.1874L31.0156 15.5204H32.3157C32.4912 14.3781 32.6253 13.4283 32.7242 12.6762C33.1686 12.2734 33.391 11.9232 33.839 11.9459C33.6403 12.428 33.5243 12.9829 33.5243 13.5522C33.5243 14.7892 34.148 15.606 35.0928 15.606C35.569 15.606 35.9343 15.4412 36.2906 15.0596L36.2293 15.5201H37.4585L38.4481 9.43359H37.1667ZM35.543 14.377C35.1009 14.377 34.877 14.0482 34.877 13.4011C34.877 12.4281 35.2954 11.7384 35.8845 11.7384C36.331 11.7384 36.5731 12.0789 36.5731 12.7078C36.5731 13.6892 36.1476 14.377 35.543 14.377Z" fill="#000066"/>
<path fill-rule="evenodd" clip-rule="evenodd" d="M6.34607 15.1586H5.04709L5.79161 10.4798L4.12992 15.1586H3.24433L3.13502 10.5069L2.35268 15.1586H1.13672L2.15242 9.07227H4.02061L4.07281 12.84L5.3334 9.07227H7.35099L6.34607 15.1586Z" fill="white"/>
<path fill-rule="evenodd" clip-rule="evenodd" d="M9.54727 12.9534C9.41111 12.9375 9.35097 12.9331 9.25737 12.9331C8.52098 12.9331 8.14844 13.1861 8.14844 13.6862C8.14844 13.994 8.33036 14.191 8.61421 14.191C9.14333 14.191 9.52477 13.6858 9.54727 12.9534ZM10.4905 15.1584C10.3174 15.1584 9.41427 15.1584 9.41427 15.1584L9.43885 14.6458C9.11056 15.0507 8.6724 15.2443 8.07728 15.2443C7.37323 15.2443 6.89062 14.6924 6.89062 13.8918C6.89062 12.686 7.73026 11.984 9.17146 11.984C9.31877 11.984 9.5075 11.9975 9.70096 12.0225C9.74105 11.8586 9.75164 11.789 9.75164 11.7005C9.75164 11.373 9.52547 11.251 8.91862 11.251C8.28284 11.2435 7.75882 11.4022 7.54324 11.4729C7.55704 11.391 7.72346 10.3599 7.72346 10.3599C8.37077 10.1695 8.79778 10.0977 9.2783 10.0977C10.3938 10.0977 10.9846 10.6004 10.9837 11.5493C10.9858 11.8037 10.944 12.1183 10.8785 12.5302C10.7656 13.2464 10.5236 14.7848 10.4905 15.1584Z" fill="white"/>
<path fill-rule="evenodd" clip-rule="evenodd" d="M27.9163 9.23605L27.7036 10.5569C27.2397 10.3231 26.9037 10.2284 26.5432 10.2284C25.5733 10.2284 24.8929 11.1685 24.8929 12.5092C24.8929 13.433 25.3501 13.9911 26.1054 13.9911C26.4254 13.9911 26.7788 13.8919 27.2087 13.6789L26.9804 15.0659C26.5022 15.1966 26.1926 15.2444 25.8326 15.2444C24.4337 15.2444 23.5625 14.2359 23.5625 12.6166C23.5625 10.4406 24.7669 8.91992 26.4886 8.91992C27.0559 8.91992 27.7259 9.16095 27.9163 9.23605Z" fill="white"/>
<path fill-rule="evenodd" clip-rule="evenodd" d="M30.0112 12.9534C29.8758 12.9375 29.8154 12.9331 29.722 12.9331C28.986 12.9331 28.6133 13.1861 28.6133 13.6862C28.6133 13.994 28.795 14.191 29.0787 14.191C29.6076 14.191 29.9894 13.6858 30.0112 12.9534ZM30.9571 15.1584C30.7842 15.1584 29.8809 15.1584 29.8809 15.1584L29.9053 14.6458C29.577 15.0507 29.1388 15.2443 28.5443 15.2443C27.8395 15.2443 27.3574 14.6924 27.3574 13.8918C27.3574 12.686 28.1963 11.984 29.6379 11.984C29.7852 11.984 29.9735 11.9975 30.1668 12.0225C30.2071 11.8586 30.2177 11.789 30.2177 11.7005C30.2177 11.373 29.9921 11.251 29.3848 11.251C28.7496 11.2435 28.2258 11.4022 28.0098 11.4729C28.0235 11.391 28.1901 10.3599 28.1901 10.3599C28.8374 10.1695 29.264 10.0977 29.7445 10.0977C30.8601 10.0977 31.4514 10.6004 31.4499 11.5493C31.4526 11.8037 31.4104 12.1183 31.345 12.5302C31.2324 13.2464 30.9904 14.7848 30.9571 15.1584Z" fill="white"/>
<path fill-rule="evenodd" clip-rule="evenodd" d="M16.2652 15.0827C15.9098 15.195 15.6324 15.2437 15.3321 15.2437C14.6679 15.2437 14.3052 14.8609 14.3052 14.1567C14.2962 13.9371 14.4011 13.3625 14.4838 12.837C14.5585 12.3741 15.0469 9.45898 15.0469 9.45898H16.3383L16.1872 10.2081H16.8503L16.6736 11.3975H16.0085C15.8586 12.3396 15.6447 13.5116 15.642 13.6671C15.642 13.9231 15.7784 14.0338 16.0872 14.0338C16.2353 14.0338 16.3497 14.0192 16.4376 13.987L16.2652 15.0827Z" fill="white"/>
<path fill-rule="evenodd" clip-rule="evenodd" d="M20.2236 15.044C19.7798 15.1804 19.3513 15.2447 18.8982 15.2443C17.4522 15.2433 16.6992 14.4857 16.6992 13.0361C16.6992 11.3436 17.6576 10.0977 18.9583 10.0977C20.0239 10.0977 20.7038 10.7951 20.7038 11.8899C20.7038 12.2527 20.6565 12.6068 20.5449 13.1069H17.973C17.8859 13.825 18.3445 14.1246 19.0954 14.1246C19.5574 14.1246 19.9744 14.0287 20.4384 13.8125L20.2236 15.044ZM19.4985 12.1086C19.5055 12.0051 19.6354 11.2251 18.8975 11.2251C18.4864 11.2251 18.192 11.5401 18.0723 12.1086H19.4985Z" fill="white"/>
<path fill-rule="evenodd" clip-rule="evenodd" d="M11.2688 11.7733C11.2688 12.4001 11.5718 12.8309 12.2584 13.1558C12.7843 13.4038 12.8659 13.4772 12.8659 13.7021C12.8659 14.0107 12.6338 14.1499 12.1196 14.1499C11.7321 14.1499 11.3715 14.0896 10.9555 13.9551C10.9555 13.9551 10.7853 15.0459 10.7773 15.0973C11.0724 15.1622 11.3358 15.2213 12.1289 15.2443C13.4999 15.2443 14.1331 14.7211 14.1331 13.5899C14.1331 12.9094 13.8679 12.5104 13.2172 12.2108C12.6726 11.9595 12.61 11.904 12.61 11.6726C12.61 11.405 12.8259 11.2674 13.246 11.2674C13.5005 11.2674 13.849 11.2958 14.1792 11.3424L14.3642 10.1946C14.0277 10.1413 13.5179 10.0977 13.2208 10.0977C11.7673 10.0977 11.2645 10.8589 11.2688 11.7733Z" fill="white"/>
<path fill-rule="evenodd" clip-rule="evenodd" d="M37.8328 15.1586H36.604L36.6649 14.6979C36.3084 15.0797 35.9433 15.2445 35.4671 15.2445C34.5231 15.2445 33.8984 14.4286 33.8984 13.1903C33.8984 11.5438 34.8669 10.1561 36.0123 10.1561C36.5161 10.1561 36.8975 10.3624 37.2528 10.8312L37.541 9.07227H38.8222L37.8328 15.1586ZM35.9158 14.0148C36.5212 14.0148 36.9459 13.3274 36.9459 12.3469C36.9459 11.7179 36.7041 11.3762 36.2576 11.3762C35.6683 11.3762 35.25 12.0661 35.25 13.0395C35.25 13.6873 35.4741 14.0148 35.9158 14.0148Z" fill="white"/>
<path fill-rule="evenodd" clip-rule="evenodd" d="M32.1272 10.2094C31.9648 11.7415 31.6758 13.2931 31.4498 14.8264L31.3906 15.1592H32.69C33.1548 12.1321 33.2666 11.5414 33.9958 11.6152C34.1117 10.9956 34.3278 10.4531 34.4888 10.1796C33.9447 10.0658 33.6408 10.3742 33.2426 10.9602C33.2743 10.7066 33.3316 10.4607 33.3208 10.2094H32.1272Z" fill="white"/>
<path fill-rule="evenodd" clip-rule="evenodd" d="M21.4325 10.2094C21.2693 11.7415 20.9799 13.2931 20.7543 14.8264L20.6953 15.1592H21.9951C22.4601 12.1321 22.5715 11.5414 23.2995 11.6152C23.4162 10.9956 23.6327 10.4531 23.7933 10.1796C23.2498 10.0658 22.9453 10.3742 22.5478 10.9602C22.5792 10.7066 22.6369 10.4607 22.6255 10.2094H21.4325Z" fill="white"/>
</svg>
