<svg width="54" height="34" viewBox="0 0 54 34" fill="none" xmlns="http://www.w3.org/2000/svg">
<rect width="54" height="34" fill="white"/>
<path fill-rule="evenodd" clip-rule="evenodd" d="M50.461 10.2874L48.8011 20.958C48.7688 21.1645 48.9268 21.3516 49.1338 21.3516H50.8036C51.08 21.3516 51.3157 21.1482 51.3585 20.8721L52.9955 10.3933C53.0278 10.1867 52.8698 9.99967 52.6623 9.99967H50.7942C50.6279 9.99967 50.4866 10.1214 50.461 10.2874Z" fill="#0098D8"/>
<path fill-rule="evenodd" clip-rule="evenodd" d="M29.6456 13.7804H27.6989C27.5127 13.7804 27.3385 13.8737 27.2342 14.0296L24.5485 18.0256L23.4106 14.1856C23.3392 13.9453 23.1202 13.7804 22.8719 13.7804H20.9585C20.7275 13.7804 20.5648 14.0101 20.6394 14.2309L22.7827 20.5884L20.7666 23.4626C20.6086 23.6881 20.7682 24 21.042 24H22.9866C23.1707 24 23.3434 23.9088 23.4487 23.756L29.9226 14.3152C30.0774 14.0892 29.9179 13.7804 29.6456 13.7804Z" fill="#002F83"/>
<path fill-rule="evenodd" clip-rule="evenodd" d="M45.4811 17.5889C45.2939 18.707 44.4157 19.4578 43.295 19.4578C42.7333 19.4578 42.2833 19.275 41.9944 18.9294C41.7076 18.5869 41.6001 18.0984 41.6909 17.5552C41.865 16.4466 42.7578 15.6721 43.8613 15.6721C44.4115 15.6721 44.8579 15.8565 45.1526 16.2053C45.4493 16.5568 45.5661 17.0478 45.4811 17.5889ZM48.1792 13.78H46.2424C46.0765 13.78 45.9352 13.9017 45.9091 14.0677L45.8241 14.6146L45.6885 14.4165C45.2693 13.8016 44.3342 13.5956 43.4007 13.5956C41.261 13.5956 39.4332 15.2342 39.0775 17.532C38.8924 18.6785 39.1552 19.7739 39.7988 20.5384C40.3896 21.2408 41.2329 21.5332 42.2378 21.5332C43.9629 21.5332 44.9193 20.4141 44.9193 20.4141L44.8328 20.9578C44.8004 21.1644 44.9584 21.3514 45.166 21.3514H46.9099C47.1868 21.3514 47.422 21.1486 47.4653 20.8725L48.5125 14.1736C48.5448 13.967 48.3862 13.78 48.1792 13.78Z" fill="#0098D8"/>
<path fill-rule="evenodd" clip-rule="evenodd" d="M16.631 17.5889C16.4438 18.707 15.5656 19.4578 14.4449 19.4578C13.8833 19.4578 13.4332 19.275 13.1443 18.9294C12.858 18.5869 12.7501 18.0984 12.8408 17.5552C13.015 16.4466 13.9078 15.6721 15.0113 15.6721C15.5615 15.6721 16.0079 15.8565 16.3025 16.2053C16.5992 16.5568 16.716 17.0478 16.631 17.5889ZM19.3296 13.78H17.3928C17.2269 13.78 17.0856 13.9017 17.0595 14.0677L16.9745 14.6146L16.8395 14.4165C16.4197 13.8016 15.4846 13.5956 14.5511 13.5956C12.4114 13.5956 10.5836 15.2342 10.2279 17.532C10.0428 18.6785 10.3056 19.7739 10.9491 20.5384C11.54 21.2408 12.3833 21.5332 13.3882 21.5332C15.1133 21.5332 16.0697 20.4141 16.0697 20.4141L15.9832 20.9578C15.9508 21.1644 16.1088 21.3514 16.3164 21.3514H18.0603C18.3372 21.3514 18.5724 21.1486 18.6157 20.8725L19.6628 14.1736C19.6952 13.967 19.5366 13.78 19.3296 13.78Z" fill="#002F83"/>
<path fill-rule="evenodd" clip-rule="evenodd" d="M7.7069 13.827C7.48578 15.2939 6.37708 15.2939 5.30436 15.2939H4.69421L5.12235 12.5551C5.14791 12.3897 5.28923 12.2679 5.45507 12.2679H5.73511C6.46521 12.2679 7.15463 12.2679 7.51029 12.6879C7.72306 12.9392 7.78721 13.3122 7.7069 13.827ZM7.23975 9.99967H3.19502C2.91811 9.99967 2.68291 10.2031 2.63963 10.4791L1.00421 20.958C0.971877 21.1645 1.12989 21.3516 1.33693 21.3516H3.26855C3.54495 21.3516 3.78014 21.1482 3.82343 20.8726L4.26513 18.0453C4.3079 17.7692 4.54361 17.5658 4.82001 17.5658H6.09976C8.76409 17.5658 10.302 16.2634 10.7035 13.6811C10.8845 12.5525 10.7108 11.6652 10.1878 11.044C9.61257 10.3611 8.59304 9.99967 7.23975 9.99967Z" fill="#002F83"/>
<path fill-rule="evenodd" clip-rule="evenodd" d="M36.5569 13.827C36.3358 15.2939 35.2271 15.2939 34.1544 15.2939H33.5442L33.9724 12.5551C33.9979 12.3897 34.1392 12.2679 34.3051 12.2679H34.5851C35.3152 12.2679 36.0046 12.2679 36.3603 12.6879C36.5731 12.9392 36.6372 13.3122 36.5569 13.827ZM36.0894 9.99967H32.0446C31.7677 9.99967 31.5325 10.2031 31.4892 10.4791L29.8538 20.958C29.8215 21.1645 29.98 21.3516 30.1865 21.3516H32.2621C32.4556 21.3516 32.6204 21.2093 32.6506 21.0165L33.1147 18.0453C33.1575 17.7692 33.3932 17.5658 33.6696 17.5658H34.9494C37.6137 17.5658 39.1516 16.2634 39.5531 13.6811C39.7341 12.5525 39.5604 11.6652 39.0374 11.044C38.4622 10.3611 37.4426 9.99967 36.0894 9.99967Z" fill="#0098D8"/>
</svg>
